<svg width="28" height="28" viewBox="0 0 28 28" fill="none" xmlns="http://www.w3.org/2000/svg">
<g opacity="0.7" clip-path="url(#clip0_1_5012)">
<path d="M17.7898 19.3873C17.7188 18.4233 17.6989 17.4561 17.7301 16.49L17.729 16.5324C18.5924 15.6373 19.1309 14.4787 19.2585 13.2415L19.2608 13.2175C19.6498 13.1853 20.2637 12.8067 20.4427 11.3058C20.4967 11.0473 20.4763 10.7788 20.3839 10.5314C20.2915 10.2841 20.1309 10.068 19.9206 9.90821L19.9171 9.90591C20.5505 8.00114 21.8655 2.10784 17.4834 1.49969C17.0325 0.707947 15.8781 0.306339 14.3773 0.306339C8.37264 0.416495 7.6486 4.83992 8.96129 9.90591C8.74933 10.0671 8.58767 10.2854 8.49521 10.5351C8.40275 10.7849 8.38332 11.0558 8.4392 11.3161L8.43805 11.3069C8.62164 12.8055 9.23094 13.1865 9.61992 13.2186C9.75637 14.4695 10.312 15.6374 11.1965 16.5324C11.2256 17.5155 11.2034 18.4995 11.13 19.4802L11.1357 19.3873C9.94465 22.5818 1.92627 21.6845 1.55908 27.8452H27.3285C26.9591 21.6845 18.9774 22.5818 17.7886 19.3873H17.7898Z" fill="white"/>
</g>
<defs>
<clipPath id="clip0_1_5012">
<rect width="27.5388" height="27.5388" fill="white" transform="translate(0.182373 0.306377)"/>
</clipPath>
</defs>
</svg>
